<?xml version="1.0" encoding="UTF-8" standalone="no"?>
<svg
   xmlns:dc="http://purl.org/dc/elements/1.1/"
   xmlns:cc="http://creativecommons.org/ns#"
   xmlns:rdf="http://www.w3.org/1999/02/22-rdf-syntax-ns#"
   xmlns:svg="http://www.w3.org/2000/svg"
   xmlns="http://www.w3.org/2000/svg"
   xmlns:sodipodi="http://sodipodi.sourceforge.net/DTD/sodipodi-0.dtd"
   xmlns:inkscape="http://www.inkscape.org/namespaces/inkscape"
   height="511pt"
   viewBox="1 -9 509.99607 511"
   width="509pt"
   version="1.1"
   id="svg56"
   sodipodi:docname="calendario.svg"
   inkscape:version="0.92.2 (5c3e80d, 2017-08-06)">
  <metadata
     id="metadata62">
    <rdf:RDF>
      <cc:Work
         rdf:about="">
        <dc:format>image/svg+xml</dc:format>
        <dc:type
           rdf:resource="http://purl.org/dc/dcmitype/StillImage" />
        <dc:title></dc:title>
      </cc:Work>
    </rdf:RDF>
  </metadata>
  <defs
     id="defs60" />
  <sodipodi:namedview
     pagecolor="#ffffff"
     bordercolor="#666666"
     borderopacity="1"
     objecttolerance="10"
     gridtolerance="10"
     guidetolerance="10"
     inkscape:pageopacity="0"
     inkscape:pageshadow="2"
     inkscape:window-width="1366"
     inkscape:window-height="705"
     id="namedview58"
     showgrid="false"
     inkscape:pagecheckerboard="true"
     inkscape:zoom="0.34637965"
     inkscape:cx="340.66667"
     inkscape:cy="340.66667"
     inkscape:window-x="-8"
     inkscape:window-y="-8"
     inkscape:window-maximized="1"
     inkscape:current-layer="svg56" />
  <path
     d="M 463.92492,450.3648 H 16.713983 c -6.8359382,0 -12.371094,-5.54297 -12.371094,-12.375 V 70.259335 c 0,-21.679688 17.570313,-39.25 39.25,-39.25 H 437.04601 c 21.67578,0 39.25,17.570312 39.25,39.25 V 437.9898 c 0,6.83594 -5.53906,12.375 -12.37109,12.375 z m 0,0"
     id="path2"
     inkscape:connector-curvature="0"
     style="fill:#d0f4ef" />
  <path
     d="M 476.2921,70.263241 V 437.9859 c 0,6.83593 -5.53125,12.3789 -12.36718,12.3789 h -37.52735 c 6.83203,0 12.375,-5.54297 12.375,-12.3789 V 70.263241 c 0,-21.6875 -17.57422,-39.25 -39.25,-39.25 h 37.53125 c 21.67188,0 39.23828,17.5625 39.23828,39.25 z m 0,0"
     id="path4"
     inkscape:connector-curvature="0"
     style="fill:#abe0da" />
  <path
     d="M 476.2921,70.263241 V 130.29058 H 4.3389828 V 70.263241 c 0,-21.6875 17.5781252,-39.25 39.2617192,-39.25 H 437.05382 c 21.67188,0 39.23828,17.5625 39.23828,39.25 z m 0,0"
     id="path6"
     style="opacity:0.95;fill:#a0d468;fill-opacity:1"
     inkscape:connector-curvature="0" />
  <path
     d="M 476.2921,70.263241 V 130.29058 H 438.77257 V 70.263241 c 0,-21.6875 -17.57422,-39.25 -39.25,-39.25 h 37.53125 c 21.67188,0 39.23828,17.5625 39.23828,39.25 z m 0,0"
     id="path8"
     style="fill:#8cc153;fill-opacity:1"
     inkscape:connector-curvature="0" />
  <g
     id="g30"
     style="fill:#628fb1"
     transform="translate(4.3389828,2.1694914)">
    <path
       d="M 79.488281,173.83984 H 52.636719 c -4.269531,0 -7.726563,-3.46093 -7.726563,-7.72656 0,-4.26562 3.457032,-7.72656 7.726563,-7.72656 h 26.851562 c 4.269531,0 7.726563,3.46094 7.726563,7.72656 0,4.26563 -3.457032,7.72656 -7.726563,7.72656 z m 0,0"
       id="path10"
       inkscape:connector-curvature="0" />
    <path
       d="m 162.02344,173.83984 h -26.85547 c -4.26563,0 -7.72656,-3.46093 -7.72656,-7.72656 0,-4.26562 3.46093,-7.72656 7.72656,-7.72656 h 26.85547 c 4.26562,0 7.72656,3.46094 7.72656,7.72656 0,4.26563 -3.46094,7.72656 -7.72656,7.72656 z m 0,0"
       id="path12"
       inkscape:connector-curvature="0" />
    <path
       d="m 244.55469,173.83984 h -26.85547 c -4.26563,0 -7.72266,-3.46093 -7.72266,-7.72656 0,-4.26562 3.45703,-7.72656 7.72266,-7.72656 h 26.85547 c 4.26953,0 7.72656,3.46094 7.72656,7.72656 0,4.26563 -3.45703,7.72656 -7.72656,7.72656 z m 0,0"
       id="path14"
       inkscape:connector-curvature="0" />
    <path
       d="m 327.08984,173.83984 h -26.85547 c -4.26562,0 -7.72656,-3.46093 -7.72656,-7.72656 0,-4.26562 3.46094,-7.72656 7.72656,-7.72656 h 26.85547 c 4.26563,0 7.72657,3.46094 7.72657,7.72656 0,4.26563 -3.46094,7.72656 -7.72657,7.72656 z m 0,0"
       id="path16"
       inkscape:connector-curvature="0" />
    <path
       d="m 409.62109,173.83984 h -26.85156 c -4.26953,0 -7.72656,-3.46093 -7.72656,-7.72656 0,-4.26562 3.45703,-7.72656 7.72656,-7.72656 h 26.85156 c 4.26953,0 7.72657,3.46094 7.72657,7.72656 0,4.26563 -3.45703,7.72656 -7.72657,7.72656 z m 0,0"
       id="path18"
       inkscape:connector-curvature="0" />
    <path
       d="M 79.488281,212.69141 H 52.636719 c -4.269531,0 -7.726563,-3.46094 -7.726563,-7.72657 0,-4.26562 3.457032,-7.72656 7.726563,-7.72656 h 26.851562 c 4.269531,0 7.726563,3.46094 7.726563,7.72656 0,4.26563 -3.457032,7.72657 -7.726563,7.72657 z m 0,0"
       id="path20"
       inkscape:connector-curvature="0" />
    <path
       d="m 162.02344,212.69141 h -26.85547 c -4.26563,0 -7.72656,-3.46094 -7.72656,-7.72657 0,-4.26562 3.46093,-7.72656 7.72656,-7.72656 h 26.85547 c 4.26562,0 7.72656,3.46094 7.72656,7.72656 0,4.26563 -3.46094,7.72657 -7.72656,7.72657 z m 0,0"
       id="path22"
       inkscape:connector-curvature="0" />
    <path
       d="m 244.55469,212.69141 h -26.85547 c -4.26563,0 -7.72266,-3.46094 -7.72266,-7.72657 0,-4.26562 3.45703,-7.72656 7.72266,-7.72656 h 26.85547 c 4.26953,0 7.72656,3.46094 7.72656,7.72656 0,4.26563 -3.45703,7.72657 -7.72656,7.72657 z m 0,0"
       id="path24"
       inkscape:connector-curvature="0" />
    <path
       d="m 327.08984,212.69141 h -26.85547 c -4.26562,0 -7.72656,-3.46094 -7.72656,-7.72657 0,-4.26562 3.46094,-7.72656 7.72656,-7.72656 h 26.85547 c 4.26563,0 7.72657,3.46094 7.72657,7.72656 0,4.26563 -3.46094,7.72657 -7.72657,7.72657 z m 0,0"
       id="path26"
       inkscape:connector-curvature="0" />
    <path
       d="m 409.62109,212.69141 h -26.85156 c -4.26953,0 -7.72656,-3.46094 -7.72656,-7.72657 0,-4.26562 3.45703,-7.72656 7.72656,-7.72656 h 26.85156 c 4.26953,0 7.72657,3.46094 7.72657,7.72656 0,4.26563 -3.45703,7.72657 -7.72657,7.72657 z m 0,0"
       id="path28"
       inkscape:connector-curvature="0" />
  </g>
  <path
     d="m 200.93664,407.45074 c -5.8086,0 -11.6211,-2.21484 -16.05079,-6.64844 l -39.72656,-39.72656 c -8.86719,-8.86328 -8.86719,-23.23438 0,-32.10156 8.86328,-8.86328 23.23828,-8.86328 32.10156,0 l 23.67579,23.67578 92.73828,-92.74219 c 8.86718,-8.85937 23.23828,-8.86328 32.10156,0 8.86719,8.86719 8.86719,23.23828 0,32.10547 L 216.98742,400.8023 c -4.4336,4.4336 -10.24219,6.64844 -16.05078,6.64844 z m 0,0"
     id="path32"
     style="opacity:0.95;fill:#63c153;fill-opacity:1"
     inkscape:connector-curvature="0" />
  <path
     d="M 88.624139,62.290585 H 74.272577 c -6.097656,0 -11.042969,-4.941406 -11.042969,-11.042969 V 13.708553 c 0,-6.0976556 4.945313,-11.0390616 11.042969,-11.0390616 h 14.351562 c 6.097656,0 11.042969,4.941406 11.042969,11.0390616 v 37.539063 c 0,6.101563 -4.945313,11.042969 -11.042969,11.042969 z m 0,0"
     id="path34"
     inkscape:connector-curvature="0"
     style="fill:#ffbd47" />
  <path
     d="m 191.75695,62.290585 h -14.35547 c -6.09766,0 -11.03906,-4.941406 -11.03906,-11.042969 V 13.708553 c 0,-6.0976556 4.9414,-11.0390616 11.03906,-11.0390616 h 14.35547 c 6.09765,0 11.03906,4.941406 11.03906,11.0390616 v 37.539063 c 0,6.101563 -4.94141,11.042969 -11.03906,11.042969 z m 0,0"
     id="path36"
     inkscape:connector-curvature="0"
     style="fill:#ffbd47" />
  <path
     d="m 294.88976,62.290585 h -14.35547 c -6.09765,0 -11.03906,-4.941406 -11.03906,-11.042969 V 13.708553 c 0,-6.0976556 4.94141,-11.0390616 11.03906,-11.0390616 h 14.35547 c 6.09766,0 11.03906,4.941406 11.03906,11.0390616 v 37.539063 c 0,6.101563 -4.94531,11.042969 -11.03906,11.042969 z m 0,0"
     id="path38"
     inkscape:connector-curvature="0"
     style="fill:#ffbd47" />
  <path
     d="M 398.01867,62.290585 H 383.6671 c -6.09765,0 -11.04296,-4.941406 -11.04296,-11.042969 V 13.708553 c 0,-6.0976556 4.94531,-11.0390616 11.04296,-11.0390616 h 14.35157 c 6.09765,0 11.04297,4.941406 11.04297,11.0390616 v 37.539063 c 0,6.101563 -4.94532,11.042969 -11.04297,11.042969 z m 0,0"
     id="path40"
     inkscape:connector-curvature="0"
     style="fill:#ffbd47" />
  <path
     d="m 516.33898,401.03277 c 0,52.34766 -42.43359,94.78125 -94.78125,94.78125 -52.34766,0 -94.78125,-42.43359 -94.78125,-94.78125 0,-52.34375 42.43359,-94.77734 94.78125,-94.77734 52.34766,0 94.78125,42.43359 94.78125,94.77734 z m 0,0"
     id="path42"
     inkscape:connector-curvature="0"
     style="fill:#38aaff" />
  <path
     d="m 489.72179,401.03277 c 0,37.64844 -30.51953,68.16406 -68.16406,68.16406 -37.64453,0 -68.16406,-30.51562 -68.16406,-68.16406 0,-37.64453 30.51953,-68.16016 68.16406,-68.16016 37.64453,0 68.16406,30.51563 68.16406,68.16016 z m 0,0"
     id="path44"
     inkscape:connector-curvature="0"
     style="fill:#d0f4ef" />
  <path
     d="m 421.55773,361.56793 c -4.26563,0 -7.72656,-3.45703 -7.72656,-7.72657 v -9.41015 c 0,-4.26563 3.46093,-7.72656 7.72656,-7.72656 4.26562,0 7.72656,3.46093 7.72656,7.72656 v 9.41015 c 0,4.26954 -3.46094,7.72657 -7.72656,7.72657 z m 0,0"
     id="path46"
     inkscape:connector-curvature="0"
     style="fill:#628fb1" />
  <path
     d="m 421.55773,465.3648 c -4.26563,0 -7.72656,-3.46094 -7.72656,-7.72656 v -9.41016 c 0,-4.26953 3.46093,-7.72656 7.72656,-7.72656 4.26562,0 7.72656,3.45703 7.72656,7.72656 v 9.41016 c 0,4.26562 -3.46094,7.72656 -7.72656,7.72656 z m 0,0"
     id="path48"
     inkscape:connector-curvature="0"
     style="fill:#628fb1" />
  <path
     d="m 478.15929,408.75933 h -9.41015 c -4.26563,0 -7.72657,-3.45703 -7.72657,-7.72656 0,-4.26562 3.46094,-7.72265 7.72657,-7.72265 h 9.41015 c 4.26953,0 7.72657,3.45703 7.72657,7.72265 0,4.26953 -3.45704,7.72656 -7.72657,7.72656 z m 0,0"
     id="path50"
     inkscape:connector-curvature="0"
     style="fill:#628fb1" />
  <path
     d="m 438.58898,408.75933 h -17.03125 c -4.26563,0 -7.72656,-3.45703 -7.72656,-7.72656 v -15.64844 c 0,-4.26953 3.46093,-7.72656 7.72656,-7.72656 4.26562,0 7.72656,3.46094 7.72656,7.72656 v 7.92578 h 9.30078 c 4.26953,0 7.72657,3.45704 7.72657,7.72266 0,4.26953 -3.45703,7.72656 -7.72266,7.72656 z m 0,0"
     id="path52"
     inkscape:connector-curvature="0"
     style="fill:#ffbd47" />
  <path
     d="m 374.36632,408.75933 h -9.41015 c -4.26953,0 -7.72656,-3.45703 -7.72656,-7.72656 0,-4.26562 3.45703,-7.72265 7.72656,-7.72265 h 9.41015 c 4.26563,0 7.72657,3.45703 7.72657,7.72265 0,4.26953 -3.46094,7.72656 -7.72657,7.72656 z m 0,0"
     id="path54"
     inkscape:connector-curvature="0"
     style="fill:#628fb1" />
</svg>
